PathFileType  4	(X/Y/Z) C:\Users\antoi\Documents\MyRepositories\mobilecap\ResultsAnalysis
DataRate	CameraRate	NumFrames	NumMarkers	Units	OrigDataRate	OrigDataStartFrame	OrigNumFrames
100.0	100.0	4	55	mm	100.0	34	265
Frame#	Time	r_knee			r_shank_antsup			r_ankle			r_calc			r_5meta			r_toe			L_knee			L_shank_antsup			L_ankle			L_calc			L_5meta			L_toe			r_mknee			r_mankle			L_mknee			L_mankle			r_sh2			r_sh3			r_sh4			L_sh2			L_sh3			r_thigh1			r_thigh2			r_thigh3			r_thigh4			r_thigh5			L_thigh1			L_thigh2			L_thigh3			L_thigh4			r.ASIS			r.PSIS			L.ASIS			L.PSIS			C7			R_Shoulder			L_Shoulder			R_Sternum			L_Sternum			R_humerus			R_elbow_med			R_elbow_lat			R_forearm			R_wrist_radius			R_wrist_ulna			L_humerus			L_elbow_med			L_elbow_lat			L_forearm			L_wrist_radius			L_wrist_ulna			R_HJC			L_HJC			R_HJC_reg			L_HJC_reg			
		X1	Y1	Z1	X2	Y2	Z2	X3	Y3	Z3	X4	Y4	Z4	X5	Y5	Z5	X6	Y6	Z6	X7	Y7	Z7	X8	Y8	Z8	X9	Y9	Z9	X10	Y10	Z10	X11	Y11	Z11	X12	Y12	Z12	X13	Y13	Z13	X14	Y14	Z14	X15	Y15	Z15	X16	Y16	Z16	X17	Y17	Z17	X18	Y18	Z18	X19	Y19	Z19	X20	Y20	Z20	X21	Y21	Z21	X22	Y22	Z22	X23	Y23	Z23	X24	Y24	Z24	X25	Y25	Z25	X26	Y26	Z26	X27	Y27	Z27	X28	Y28	Z28	X29	Y29	Z29	X30	Y30	Z30	X31	Y31	Z31	X32	Y32	Z32	X33	Y33	Z33	X34	Y34	Z34	X35	Y35	Z35	X36	Y36	Z36	X37	Y37	Z37	X38	Y38	Z38	X39	Y39	Z39	X40	Y40	Z40	X41	Y41	Z41	X42	Y42	Z42	X43	Y43	Z43	X44	Y44	Z44	X45	Y45	Z45	X46	Y46	Z46	X47	Y47	Z47	X48	Y48	Z48	X49	Y49	Z49	X50	Y50	Z50	X51	Y51	Z51	X52	Y52	Z52	X53	Y53	Z53	X54	Y54	Z54	X55	Y55	Z55	

34	0.33000000	-206.03868	501.60224	-392.01123	-173.40898	433.73281	-402.79935	-250.66154	98.78399	-366.03881	-320.87874	64.04697	-394.22371	-144.59095	45.86034	-335.57628	-102.26543	69.96193	-396.03126	-215.87291	497.65570	-732.06711	-193.15344	410.24607	-741.50081	-254.87927	101.18207	-740.59569	-320.57112	62.54420	-698.89821	-151.09747	42.86750	-788.15789	-110.22726	62.96060	-732.43190	-209.09212	486.40796	-512.87471	-239.77993	104.94326	-444.38742	-212.73364	487.33356	-608.89209	-224.99112	100.31307	-664.58297	-197.83199	326.46028	-365.78746	-248.30928	452.58502	-371.46277	-269.41099	343.25685	-355.38171	-280.06249	422.10290	-745.91690	-283.33314	300.47664	-761.99533	-131.80187	820.99444	-387.70302	-136.56477	709.34324	-389.80406	-193.64275	686.93769	-360.47428	-243.70995	824.30853	-367.92728	-246.74871	707.32322	-369.45805	-163.70113	766.07554	-764.86905	-166.99322	628.13035	-747.75283	-276.94598	767.01603	-736.22703	-272.72608	626.73903	-726.65335	-113.64050	978.81012	-438.97995	-309.73542	1013.88008	-523.98633	-106.17975	958.94109	-692.03011	-313.50284	1009.50140	-620.84443	-327.94649	1419.23688	-583.70180	-229.02020	1390.59134	-403.00939	-255.88917	1390.84601	-763.28439	-188.49617	1401.72211	-562.93474	-184.82878	1405.12959	-603.83750	-208.11711	1248.65204	-350.13207	-266.39783	1042.87891	-403.80281	-242.04518	1053.36478	-337.53540	-161.07509	936.22480	-334.54140	-117.57745	806.71185	-342.60925	-139.92305	797.51685	-316.59538	-226.94049	1272.11808	-816.11301	-266.34637	1041.49148	-742.42210	-237.85400	1055.81660	-814.28391	-166.10716	965.75921	-799.38222	-120.07668	812.20899	-791.68557	-139.96764	807.05788	-814.53235	-191.96307	897.93955	-460.49212	-189.26765	886.52510	-666.62963	-181.77843	899.58055	-468.31541	-188.28583	892.01733	-635.61759	
35	0.34000000	-206.02377	501.60214	-391.99355	-173.40784	433.74030	-402.81565	-250.72516	98.80527	-366.10093	-320.86951	64.03257	-394.20209	-144.58905	45.89097	-335.58166	-102.26063	69.97398	-396.04366	-215.87849	497.66026	-732.11655	-193.15905	410.24232	-741.52835	-254.88661	101.17492	-740.60203	-320.58047	62.53977	-698.89094	-151.09790	42.85610	-788.18290	-110.22799	62.96073	-732.43353	-209.09617	486.41037	-512.87475	-239.77798	104.93713	-444.37971	-212.66333	487.38262	-608.82104	-224.98599	100.41631	-664.57436	-197.87345	326.45701	-365.78372	-248.29300	452.57132	-371.45536	-269.55857	343.34784	-355.51809	-280.05695	422.04130	-745.84581	-283.32783	300.47948	-762.01948	-131.79913	820.96716	-387.66882	-136.47577	709.25608	-389.87013	-193.63161	686.93558	-360.46439	-243.73900	824.25003	-367.94823	-246.73149	707.34044	-369.43625	-163.72574	766.06067	-764.94553	-167.00525	628.12220	-747.78626	-276.95212	767.01412	-736.25614	-272.73345	626.73430	-726.64327	-113.65008	978.82856	-438.98122	-309.71611	1013.88751	-523.99572	-106.18927	958.93875	-692.03219	-313.41066	1009.57352	-620.87643	-327.98708	1419.21054	-583.73694	-229.06206	1390.56432	-403.00368	-255.94825	1390.82355	-763.20902	-188.53138	1401.70191	-562.88112	-184.84659	1405.14136	-603.78783	-208.16131	1248.62276	-350.11961	-266.39322	1042.88185	-403.81066	-242.12026	1053.44141	-337.37990	-161.11793	936.20048	-334.57091	-117.58977	806.71887	-342.60776	-139.94034	797.54796	-316.61375	-226.98305	1272.09402	-816.07073	-266.36791	1041.44879	-742.39067	-237.86906	1055.79724	-814.27052	-166.12316	965.75178	-799.38292	-120.08789	812.18097	-791.65870	-139.99021	807.01852	-814.52649	-191.97248	897.95708	-460.50310	-189.25677	886.54622	-666.64054	-181.81850	899.48901	-468.41785	-188.19903	892.03869	-635.73149	
36	0.35000000	-206.04794	501.59174	-392.00583	-173.41338	433.73186	-402.80346	-250.81201	98.77037	-366.16080	-320.86142	63.98673	-394.15552	-144.57968	45.91741	-335.58843	-102.23947	70.00241	-396.06192	-215.88825	497.66101	-732.12480	-193.15537	410.23653	-741.49870	-254.88753	101.17391	-740.60124	-320.59168	62.52833	-698.87655	-151.10014	42.85592	-788.16801	-110.22858	62.94884	-732.42869	-209.08871	486.39419	-512.85341	-239.77882	104.92769	-444.37286	-212.67152	487.38275	-608.82473	-224.99689	100.47081	-664.60425	-197.89385	326.42456	-365.78340	-248.27928	452.54919	-371.44530	-269.68016	343.54208	-355.60018	-280.08261	421.99658	-745.75034	-283.30448	300.53947	-761.99498	-131.79383	820.94765	-387.70467	-136.43153	709.11710	-389.85106	-193.64518	686.91365	-360.49048	-243.76275	824.24125	-367.95955	-246.72798	707.33704	-369.42115	-163.76086	766.04585	-765.00378	-167.02049	628.10996	-747.83353	-276.95389	767.01809	-736.24432	-272.73638	626.71778	-726.62442	-113.67276	978.86491	-438.99956	-309.72715	1013.82605	-523.95030	-106.20116	958.93027	-692.03260	-313.33176	1009.56420	-620.84073	-328.04592	1419.22976	-583.78132	-229.09593	1390.52589	-402.98539	-255.99261	1390.79057	-763.13852	-188.55538	1401.68604	-562.88221	-184.86501	1405.15235	-603.74578	-208.19235	1248.60631	-350.09213	-266.39841	1042.87541	-403.81606	-242.16955	1053.44019	-337.36601	-161.15550	936.19261	-334.54601	-117.58880	806.71840	-342.58675	-139.96709	797.57341	-316.62774	-227.02359	1272.07273	-816.03959	-266.37795	1041.38844	-742.31519	-237.88602	1055.77842	-814.24506	-166.13510	965.73986	-799.37274	-120.10023	812.15875	-791.63738	-139.99899	807.02036	-814.51610	-191.94033	897.95526	-460.48407	-189.23528	886.53459	-666.62110	-181.84887	899.38795	-468.53633	-188.07347	892.02834	-635.85071	
37	0.36000000	-206.05688	501.57102	-392.00098	-173.42646	433.70115	-402.75745	-250.82734	98.70864	-366.14271	-320.89593	63.92540	-394.14280	-144.57065	45.92003	-335.59480	-102.22847	70.02327	-396.08266	-215.89953	497.65370	-732.09922	-193.15272	410.22921	-741.46220	-254.88394	101.16761	-740.59798	-320.58760	62.50569	-698.86323	-151.10372	42.86044	-788.14228	-110.23223	62.94725	-732.41602	-209.09149	486.39206	-512.84980	-239.78481	104.91884	-444.37296	-212.69449	487.36911	-608.83436	-224.98476	100.46092	-664.64033	-197.89763	326.34718	-365.77058	-248.28565	452.51717	-371.43387	-269.64434	343.59797	-355.52570	-280.10165	421.99119	-745.73216	-283.33379	300.52106	-761.93460	-131.80378	820.93522	-387.74755	-136.50784	709.17227	-389.80316	-193.65834	686.89629	-360.50403	-243.76153	824.27329	-367.93514	-246.73763	707.31522	-369.41727	-163.77569	766.04461	-764.97250	-167.02980	628.10545	-747.84163	-276.96887	767.02358	-736.17874	-272.71678	626.70801	-726.61033	-113.68670	978.87663	-439.00988	-309.75210	1013.74890	-523.89770	-106.20843	958.92247	-692.03193	-313.37284	1009.46570	-620.79354	-328.07731	1419.25792	-583.76850	-229.13287	1390.51002	-402.93419	-256.01433	1390.77209	-763.11894	-188.55946	1401.66661	-562.92238	-184.88860	1405.16183	-603.71545	-208.20529	1248.60567	-350.05878	-266.40835	1042.86822	-403.81614	-242.21506	1053.32263	-337.46599	-161.15973	936.20284	-334.49586	-117.58613	806.71097	-342.54971	-139.97999	797.56991	-316.60519	-227.04976	1272.05595	-816.02754	-266.37298	1041.34519	-742.26834	-237.90618	1055.76314	-814.21977	-166.14363	965.72783	-799.36258	-120.10939	812.14237	-791.62257	-139.99318	807.02854	-814.48908	-191.90216	897.92938	-460.45743	-189.22616	886.49379	-666.59401	-181.81716	899.38656	-468.51723	-188.06893	891.99095	-635.82296	
